<svg width="16" height="16" viewBox="0 0 16 16" fill="none" xmlns="http://www.w3.org/2000/svg">
<path d="M8.44843 0.445381C8.3642 0.274713 8.19038 0.166664 8.00006 0.166664C7.80974 0.166664 7.63592 0.274713 7.55169 0.445381L5.51282 4.5766L0.95375 5.23907C0.765407 5.26644 0.608934 5.39836 0.550121 5.57936C0.491309 5.76037 0.540357 5.95907 0.676643 6.09192L3.97562 9.30762L3.19683 13.8483C3.16466 14.0358 3.24177 14.2254 3.39575 14.3373C3.54972 14.4492 3.75385 14.4639 3.92231 14.3754L8.00006 12.2316L12.0778 14.3754C12.2463 14.4639 12.4504 14.4492 12.6044 14.3373C12.7584 14.2254 12.8355 14.0358 12.8033 13.8483L12.0245 9.30762L15.3235 6.09192C15.4598 5.95907 15.5088 5.76037 15.45 5.57936C15.3912 5.39836 15.2347 5.26644 15.0464 5.23907L10.4873 4.5766L8.44843 0.445381Z" fill="#FFD24C"/>
</svg>
